<?xml version="1.0" encoding="utf-8"?>
<!-- Generator: Adobe Illustrator 26.0.1, SVG Export Plug-In . SVG Version: 6.00 Build 0)  -->
<svg version="1.1" id="Layer_1" xmlns="http://www.w3.org/2000/svg" xmlns:xlink="http://www.w3.org/1999/xlink" x="0px" y="0px"
	 viewBox="0 0 1366 768" style="enable-background:new 0 0 1366 768;" xml:space="preserve">
<style type="text/css">
	.st0{fill:#E21936;}
	.st1{fill:#FFFFFF;}
	.st2{fill:#231F20;}
</style>
<g>
	<path class="st0" d="M267.9,384.4c0,50.6-8,99.4-22.7,145.1c0,0.1-0.4,1-0.7,1.3c-0.4,0.4-1.1,0.7-1.2,0.7
		c-26,9.8-54.1,15.2-83.5,15.2c-29.6,0-58-5.5-84.2-15.5c-0.2-0.1-0.4-0.2-0.5-0.4c-0.2-0.2-0.5-0.8-0.6-1.1
		C59.8,484,51.8,435.1,51.8,384.4v0c0-50.7,8-99.6,22.8-145.4c0.1-0.3,0.4-0.9,0.6-1.1c0.2-0.2,0.3-0.3,0.5-0.4
		c26.2-10,54.5-15.5,84.2-15.5c29.4,0,57.6,5.4,83.5,15.2c0.1,0.1,0.8,0.3,1.2,0.7c0.3,0.3,0.6,1.1,0.7,1.3
		C260,285,267.9,333.8,267.9,384.4L267.9,384.4z"/>
	<path class="st1" d="M159.9,233.2c25.8,0,51.4,4.5,76,13.3c13.9,44.6,21,91,21,137.9c0,46.9-7.1,93.3-21,137.9
		c-24.6,8.8-50.1,13.3-76,13.3c-25.8,0-51.3-4.5-75.9-13.3c-13.9-44.7-21-91.1-21-137.9c0-46.8,7.1-93.2,21-137.9
		C108.5,237.7,134.1,233.2,159.9,233.2z M87.6,250.1c-13.3,43.5-20.1,88.7-20.1,134.3c0,45.6,6.8,90.7,20.1,134.2
		c23.5,8.2,47.7,12.4,72.2,12.4c24.6,0,48.9-4.2,72.3-12.4c13.3-43.5,20.1-88.7,20.1-134.3c0-45.6-6.8-90.8-20.1-134.3
		c-23.4-8.1-47.7-12.4-72.3-12.4C135.4,237.7,111.1,242,87.6,250.1z"/>
	<path class="st1" d="M205.8,407.7c-9.7-11.3-24-18.5-39.8-18.5c-11.6,0-22.2,3.9-30.8,10.4c-0.6-27.6,1-56,5.5-82.9
		c5-29,8.1-34.6,21.1-47.8c6.5-6.5,12.3-12.7,14.2-14.5c0.6-0.6,0-1.1-0.7-0.5c0.4-0.3-7.4,5.5-16.4,11.1c-9,5.6-19.4,11-22.4,12.5
		c-14,6.6-19.9,9.2-24.7,11.1c-3.1,1.2-6.7,2.9-7.7,3.8c-1,0.9-0.4,0.9,1,0.7c6.7-0.9,12-2.8,17.3-2.8c3.9,0,7.1,0.3,7.1,7.9
		c0,6.7-6.1,42.4-6.1,84c0,30,9.4,85.3,20.8,124.1l0,0.1c0.4,1.4,1.7,3.2,2.6,2.9c0.9-0.3,1.1-2,0.6-4.1
		c-5.8-25.9-10.5-59.2-11.9-94.5c8.1-6.4,18.2-10.2,29.2-10.2c10.6,0,21.5,3.8,30.4,10c0.9,0.6,0.8,1.2,0.7,2
		c-0.2,1.3-16.3,93.7-16.3,93.7c-0.2,1.2,0,3.1,0.8,3.2c0.8,0.2,1.8-1.4,2.1-2.6c0.2-0.7,23.7-92.3,24.2-94.3
		C207.1,410.2,206.8,409.1,205.8,407.7z"/>
</g>
<g>
	<path class="st2" d="M391,357.1v-42.8h-33.8v42.8h-30.7V248.6h30.7v39.5H391v-39.5h30.7v108.5H391z"/>
	<path class="st2" d="M514,357.1l-5.9-19.1h-32.5l-5.9,19.1h-32.2l39.4-108.5h30.4l39.4,108.5H514z M498.8,307
		c-3.9-14-5.6-19.8-7-27.1c-1.4,7.3-3.1,13.3-7,27.1l-2,7.1h18L498.8,307z"/>
	<path class="st2" d="M602.6,358.8c-32.2,0-49.4-23.9-49.4-55.9c0-34.9,20.5-56,49.6-56c26.7,0,37.2,11.5,44.6,31.9l-27.3,10.7
		c-3.9-10.1-7.6-16.4-17.5-16.4c-12.6,0-18,12.5-18,29.8c0,16.6,5.3,29.8,18.3,29.8c9.5,0,13.5-5.1,19.4-15.3l25.4,13.5
		C640.4,345,628.3,358.8,602.6,358.8z"/>
	<path class="st2" d="M665,357.1V248.6H748v25.3h-53.3v14.4h32.1v24.9h-32.1v18.6h54.4v25.3H665z"/>
	<path class="st2" d="M824.3,274.8v82.3h-30.1v-82.3h-30.4v-26.2h90.8v26.2H824.3z"/>
	<path class="st2" d="M929.7,274.8v82.3h-30.1v-82.3h-30.4v-26.2h90.8v26.2H929.7z"/>
	<path class="st2" d="M976.8,357.1V248.6h83.1v25.3h-53.3v14.4h32.1v24.9h-32.1v18.6h54.4v25.3H976.8z"/>
	<path class="st2" d="M1126.4,321.9h-15v35.2h-29.6V248.6h46.6c25.4,0,42.3,9.8,42.3,36C1170.7,312.1,1152.5,321.9,1126.4,321.9z
		 M1127.7,273.1h-16.3v24.3h15.8c9.8,0,13.6-4.2,13.6-12.4C1140.8,277.9,1137.3,273.1,1127.7,273.1z"/>
	<path class="st2" d="M1186.9,357.1V248.6h83.1v25.3h-53.3v14.4h32.1v24.9h-32.1v18.6h54.4v25.3H1186.9z"/>
	<path class="st2" d="M373.2,525.6c-27.3,0-47.3-13.6-47.3-48v-62.2h30.7v62.2c0,13.3,5.3,21.5,17,21.5c11.8,0,16.7-8.2,16.7-21.5
		v-62.2h30.7v62.2C421.1,512,400.5,525.6,373.2,525.6z"/>
	<path class="st2" d="M515.3,523.9l-25.9-35.8c-4.8-6.7-14.1-20.6-16.9-25.4c0.8,4.8,0.9,19.2,0.9,28v33.2h-28.8V415.4h26.5
		l23.9,32.1c5,6.7,14.6,21.1,16.9,25.6c-0.8-4.8-0.9-19.2-0.9-28v-29.6h28.8v108.5H515.3z"/>
	<path class="st2" d="M564.4,523.9V415.4h30.7v108.5H564.4z"/>
	<path class="st2" d="M678.7,523.9h-30.4l-37.3-108.5h33.8l7.9,29.1c3.7,13.5,9,35.5,11,45.9c2-10.4,7.3-32.2,11-45.9l7.9-29.1H716
		L678.7,523.9z"/>
	<path class="st2" d="M731.8,523.9V415.4h83.1v25.3h-53.3v14.4h32.1v24.9h-32.1v18.6H816v25.3H731.8z"/>
	<path class="st2" d="M896.2,523.9l-17.7-36.6h-12.1v36.6h-29.6V415.4h48.5c25.4,0,42.3,9.6,42.3,35.3c0,16.3-7.6,26.3-19.5,31.8
		l21.7,41.4H896.2z M884.6,439.9h-18.1v23.7h17.7c9.8,0,13.6-4.3,13.6-12.1C897.8,444.7,894,439.9,884.6,439.9z"/>
	<path class="st2" d="M988.2,525.6c-17.5,0-34.4-5.7-45.7-13.2l14.6-23.6c7.9,5.4,21.7,10.8,31.8,10.8c10.7,0,14.1-1.9,14.1-7
		c0-4-3.9-6.5-18.4-9.9c-26.2-6-38.7-13.2-38.7-34.9c0-20.5,16.6-34.2,42.8-34.2c18.4,0,31.8,4.5,43.2,12.6l-14.6,23.6
		c-9.6-6.5-19.2-10.2-30.2-10.2c-9,0-11.2,2.8-11.2,6.7c0,4,3.9,5.9,17.8,9.2c27.3,6.5,39.4,14.9,39.4,35.2
		C1033,515.4,1014.2,525.6,988.2,525.6z"/>
	<path class="st2" d="M1053.4,523.9V415.4h30.7v108.5H1053.4z"/>
	<path class="st2" d="M1161.4,441.6v82.3h-30.1v-82.3H1101v-26.2h90.8v26.2H1161.4z"/>
	<path class="st2" d="M1274.9,483.5v40.4h-30.4v-40l-40.1-68.5h34.7l8.4,16.4c5.7,11.3,10.4,21.7,12.4,28c2-6.3,6.7-16.7,12.4-28
		l8.4-16.4h34.4L1274.9,483.5z"/>
</g>
</svg>
