<svg version="1.1" xmlns="http://www.w3.org/2000/svg" xmlns:xlink="http://www.w3.org/1999/xlink" width="702" height="611"><defs><clipPath id="DbiqtNxDCuWu"><path fill="none" stroke="none" d=" M 0 0 L 702 0 L 702 611 L 0 611 L 0 0 Z"/></clipPath></defs><g transform="scale(1,1)" clip-path="url(#DbiqtNxDCuWu)"><g><rect fill="rgb(255,255,255)" stroke="none" x="0" y="0" width="703" height="612" fill-opacity="1"/><path fill="none" stroke="rgb(180,179,186)" paint-order="fill stroke markers" d=" M 73.5 0.5 L 73.5 611.5 M 73.5 0.5 L 73.5 611.5 M 165.5 0.5 L 165.5 611.5 M 258.5 0.5 L 258.5 611.5 M 443.5 0.5 L 443.5 611.5 M 536.5 0.5 L 536.5 611.5 M 628.5 0.5 L 628.5 611.5" stroke-opacity="1" stroke-linecap="round" stroke-linejoin="round" stroke-miterlimit="10"/><path fill="none" stroke="rgb(180,179,186)" paint-order="fill stroke markers" d=" M 17.5 0.5 L 17.5 611.5 M 36.5 0.5 L 36.5 611.5 M 54.5 0.5 L 54.5 611.5 M 91.5 0.5 L 91.5 611.5 M 110.5 0.5 L 110.5 611.5 M 128.5 0.5 L 128.5 611.5 M 147.5 0.5 L 147.5 611.5 M 184.5 0.5 L 184.5 611.5 M 202.5 0.5 L 202.5 611.5 M 221.5 0.5 L 221.5 611.5 M 240.5 0.5 L 240.5 611.5 M 277.5 0.5 L 277.5 611.5 M 295.5 0.5 L 295.5 611.5 M 314.5 0.5 L 314.5 611.5 M 332.5 0.5 L 332.5 611.5 M 369.5 0.5 L 369.5 611.5 M 388.5 0.5 L 388.5 611.5 M 406.5 0.5 L 406.5 611.5 M 425.5 0.5 L 425.5 611.5 M 462.5 0.5 L 462.5 611.5 M 480.5 0.5 L 480.5 611.5 M 499.5 0.5 L 499.5 611.5 M 517.5 0.5 L 517.5 611.5 M 554.5 0.5 L 554.5 611.5 M 573.5 0.5 L 573.5 611.5 M 591.5 0.5 L 591.5 611.5 M 610.5 0.5 L 610.5 611.5 M 647.5 0.5 L 647.5 611.5 M 665.5 0.5 L 665.5 611.5 M 684.5 0.5 L 684.5 611.5" stroke-opacity="0.23529411764705882" stroke-linecap="round" stroke-linejoin="round" stroke-miterlimit="10"/><path fill="none" stroke="rgb(180,179,186)" paint-order="fill stroke markers" d=" M 0.5 13.5 L 702.5 13.5 M 0.5 13.5 L 702.5 13.5 M 0.5 106.5 L 702.5 106.5 M 0.5 198.5 L 702.5 198.5 M 0.5 384.5 L 702.5 384.5 M 0.5 476.5 L 702.5 476.5 M 0.5 569.5 L 702.5 569.5" stroke-opacity="1" stroke-linecap="round" stroke-linejoin="round" stroke-miterlimit="10"/><path fill="none" stroke="rgb(180,179,186)" paint-order="fill stroke markers" d=" M 0.5 13.5 L 702.5 13.5 M 0.5 32.5 L 702.5 32.5 M 0.5 50.5 L 702.5 50.5 M 0.5 69.5 L 702.5 69.5 M 0.5 87.5 L 702.5 87.5 M 0.5 124.5 L 702.5 124.5 M 0.5 143.5 L 702.5 143.5 M 0.5 161.5 L 702.5 161.5 M 0.5 180.5 L 702.5 180.5 M 0.5 217.5 L 702.5 217.5 M 0.5 235.5 L 702.5 235.5 M 0.5 254.5 L 702.5 254.5 M 0.5 272.5 L 702.5 272.5 M 0.5 310.5 L 702.5 310.5 M 0.5 328.5 L 702.5 328.5 M 0.5 347.5 L 702.5 347.5 M 0.5 365.5 L 702.5 365.5 M 0.5 402.5 L 702.5 402.5 M 0.5 421.5 L 702.5 421.5 M 0.5 439.5 L 702.5 439.5 M 0.5 458.5 L 702.5 458.5 M 0.5 495.5 L 702.5 495.5 M 0.5 513.5 L 702.5 513.5 M 0.5 532.5 L 702.5 532.5 M 0.5 550.5 L 702.5 550.5 M 0.5 587.5 L 702.5 587.5 M 0.5 606.5 L 702.5 606.5" stroke-opacity="0.23529411764705882" stroke-linecap="round" stroke-linejoin="round" stroke-miterlimit="10"/><path fill="none" stroke="rgb(28,28,31)" paint-order="fill stroke markers" d=" M 351.5 2.5 L 351.5 611.5" stroke-opacity="1" stroke-miterlimit="10"/><path fill="none" stroke="rgb(28,28,31)" paint-order="fill stroke markers" d=" M 351.5 1.5 L 347.5 5.5" stroke-opacity="1" stroke-miterlimit="10"/><path fill="none" stroke="rgb(28,28,31)" paint-order="fill stroke markers" d=" M 351.5 1.5 L 355.5 5.5" stroke-opacity="1" stroke-miterlimit="10"/><path fill="none" stroke="rgb(28,28,31)" paint-order="fill stroke markers" d=" M 0.5 291.5 L 700.5 291.5" stroke-opacity="1" stroke-miterlimit="10"/><path fill="none" stroke="rgb(28,28,31)" paint-order="fill stroke markers" d=" M 701.5 291.5 L 697.5 287.5" stroke-opacity="1" stroke-miterlimit="10"/><path fill="none" stroke="rgb(28,28,31)" paint-order="fill stroke markers" d=" M 701.5 291.5 L 697.5 295.5" stroke-opacity="1" stroke-miterlimit="10"/><text fill="rgb(28,28,31)" stroke="none" font-family="geogebra-sans-serif, sans-serif" font-size="12px" font-style="normal" font-weight="normal" text-decoration="normal" x="68" y="307" text-anchor="start" dominant-baseline="alphabetic" fill-opacity="1">–3</text><text fill="rgb(28,28,31)" stroke="none" font-family="geogebra-sans-serif, sans-serif" font-size="12px" font-style="normal" font-weight="normal" text-decoration="normal" x="160" y="307" text-anchor="start" dominant-baseline="alphabetic" fill-opacity="1">–2</text><text fill="rgb(28,28,31)" stroke="none" font-family="geogebra-sans-serif, sans-serif" font-size="12px" font-style="normal" font-weight="normal" text-decoration="normal" x="253" y="307" text-anchor="start" dominant-baseline="alphabetic" fill-opacity="1">–1</text><text fill="rgb(28,28,31)" stroke="none" font-family="geogebra-sans-serif, sans-serif" font-size="12px" font-style="normal" font-weight="normal" text-decoration="normal" x="441" y="307" text-anchor="start" dominant-baseline="alphabetic" fill-opacity="1">1</text><text fill="rgb(28,28,31)" stroke="none" font-family="geogebra-sans-serif, sans-serif" font-size="12px" font-style="normal" font-weight="normal" text-decoration="normal" x="534" y="307" text-anchor="start" dominant-baseline="alphabetic" fill-opacity="1">2</text><text fill="rgb(28,28,31)" stroke="none" font-family="geogebra-sans-serif, sans-serif" font-size="12px" font-style="normal" font-weight="normal" text-decoration="normal" x="626" y="307" text-anchor="start" dominant-baseline="alphabetic" fill-opacity="1">3</text><text fill="rgb(28,28,31)" stroke="none" font-family="geogebra-sans-serif, sans-serif" font-size="12px" font-style="normal" font-weight="normal" text-decoration="normal" x="331" y="574" text-anchor="start" dominant-baseline="alphabetic" fill-opacity="1">–3</text><text fill="rgb(28,28,31)" stroke="none" font-family="geogebra-sans-serif, sans-serif" font-size="12px" font-style="normal" font-weight="normal" text-decoration="normal" x="331" y="481" text-anchor="start" dominant-baseline="alphabetic" fill-opacity="1">–2</text><text fill="rgb(28,28,31)" stroke="none" font-family="geogebra-sans-serif, sans-serif" font-size="12px" font-style="normal" font-weight="normal" text-decoration="normal" x="331" y="389" text-anchor="start" dominant-baseline="alphabetic" fill-opacity="1">–1</text><text fill="rgb(28,28,31)" stroke="none" font-family="geogebra-sans-serif, sans-serif" font-size="12px" font-style="normal" font-weight="normal" text-decoration="normal" x="337" y="203" text-anchor="start" dominant-baseline="alphabetic" fill-opacity="1">1</text><text fill="rgb(28,28,31)" stroke="none" font-family="geogebra-sans-serif, sans-serif" font-size="12px" font-style="normal" font-weight="normal" text-decoration="normal" x="337" y="111" text-anchor="start" dominant-baseline="alphabetic" fill-opacity="1">2</text><text fill="rgb(28,28,31)" stroke="none" font-family="geogebra-sans-serif, sans-serif" font-size="12px" font-style="normal" font-weight="normal" text-decoration="normal" x="337" y="18" text-anchor="start" dominant-baseline="alphabetic" fill-opacity="1">3</text><text fill="rgb(28,28,31)" stroke="none" font-family="geogebra-sans-serif, sans-serif" font-size="12px" font-style="normal" font-weight="normal" text-decoration="normal" x="337" y="307" text-anchor="start" dominant-baseline="alphabetic" fill-opacity="1">0</text><path fill="rgb(153,51,0)" stroke="none" paint-order="stroke fill markers" fill-rule="evenodd" d=" M 165.9728567309905 476.619796323361 L 536.2198077898306 476.619796323361 L 536.2198077898307 106.37284526452092 L 165.97285673099054 106.37284526452086 Z" fill-opacity="0.09803921568627451"/><path fill="none" stroke="rgb(153,51,0)" paint-order="fill stroke markers" d=" M 165.9728567309905 476.619796323361 L 536.2198077898306 476.619796323361 L 536.2198077898307 106.37284526452092 L 165.97285673099054 106.37284526452086 Z" stroke-opacity="0.6980392156862745" stroke-linecap="round" stroke-linejoin="round" stroke-miterlimit="10" stroke-width="2.5"/><path fill="none" stroke="rgb(0,0,255)" paint-order="fill stroke markers" d=" M 443.65807002512065 291.4963207939409 C 443.65807002512065 240.37588460865456 402.21676844569697 198.9345830292309 351.0963322604106 198.9345830292309" stroke-opacity="0.6980392156862745" stroke-linecap="round" stroke-linejoin="round" stroke-miterlimit="10" stroke-width="2.5"/><path fill="none" stroke="rgb(153,51,0)" paint-order="fill stroke markers" d=" M 165.9728567309905 476.619796323361 L 536.2198077898306 476.619796323361" stroke-opacity="0.6980392156862745" stroke-linecap="round" stroke-linejoin="round" stroke-miterlimit="10" stroke-width="2.5"/><path fill="none" stroke="rgb(153,51,0)" paint-order="fill stroke markers" d=" M 536.2198077898306 476.619796323361 L 536.2198077898307 106.37284526452092" stroke-opacity="0.6980392156862745" stroke-linecap="round" stroke-linejoin="round" stroke-miterlimit="10" stroke-width="2.5"/><path fill="none" stroke="rgb(153,51,0)" paint-order="fill stroke markers" d=" M 536.2198077898307 106.37284526452092 L 165.97285673099054 106.37284526452086" stroke-opacity="0.6980392156862745" stroke-linecap="round" stroke-linejoin="round" stroke-miterlimit="10" stroke-width="2.5"/><path fill="none" stroke="rgb(153,51,0)" paint-order="fill stroke markers" d=" M 165.97285673099054 106.37284526452086 L 165.9728567309905 476.619796323361" stroke-opacity="0.6980392156862745" stroke-linecap="round" stroke-linejoin="round" stroke-miterlimit="10" stroke-width="2.5"/><path fill="rgb(77,77,255)" stroke="none" paint-order="stroke fill markers" d=" M 170.9728567309905 476.619796323361 C 170.9728567309905 479.38122007251496 168.73428048014446 481.619796323361 165.9728567309905 481.619796323361 C 163.2114329818365 481.619796323361 160.9728567309905 479.38122007251496 160.9728567309905 476.619796323361 C 160.9728567309905 473.85837257420707 163.2114329818365 471.619796323361 165.9728567309905 471.619796323361 C 168.73428048014446 471.619796323361 170.9728567309905 473.85837257420707 170.9728567309905 476.619796323361 Z" fill-opacity="1"/><path fill="none" stroke="rgb(0,0,0)" paint-order="fill stroke markers" d=" M 170.9728567309905 476.619796323361 C 170.9728567309905 479.38122007251496 168.73428048014446 481.619796323361 165.9728567309905 481.619796323361 C 163.2114329818365 481.619796323361 160.9728567309905 479.38122007251496 160.9728567309905 476.619796323361 C 160.9728567309905 473.85837257420707 163.2114329818365 471.619796323361 165.9728567309905 471.619796323361 C 168.73428048014446 471.619796323361 170.9728567309905 473.85837257420707 170.9728567309905 476.619796323361 Z" stroke-opacity="1" stroke-linecap="round" stroke-linejoin="round" stroke-miterlimit="10"/><text fill="rgb(77,77,255)" stroke="none" font-family="geogebra-sans-serif, sans-serif" font-size="16px" font-style="normal" font-weight="normal" text-decoration="normal" x="170" y="467" text-anchor="start" dominant-baseline="alphabetic" fill-opacity="1">A</text><path fill="rgb(77,77,255)" stroke="none" paint-order="stroke fill markers" d=" M 541.2198077898306 476.619796323361 C 541.2198077898306 479.38122007251496 538.9812315389846 481.619796323361 536.2198077898306 481.619796323361 C 533.4583840406766 481.619796323361 531.2198077898306 479.38122007251496 531.2198077898306 476.619796323361 C 531.2198077898306 473.85837257420707 533.4583840406766 471.619796323361 536.2198077898306 471.619796323361 C 538.9812315389846 471.619796323361 541.2198077898306 473.85837257420707 541.2198077898306 476.619796323361 Z" fill-opacity="1"/><path fill="none" stroke="rgb(0,0,0)" paint-order="fill stroke markers" d=" M 541.2198077898306 476.619796323361 C 541.2198077898306 479.38122007251496 538.9812315389846 481.619796323361 536.2198077898306 481.619796323361 C 533.4583840406766 481.619796323361 531.2198077898306 479.38122007251496 531.2198077898306 476.619796323361 C 531.2198077898306 473.85837257420707 533.4583840406766 471.619796323361 536.2198077898306 471.619796323361 C 538.9812315389846 471.619796323361 541.2198077898306 473.85837257420707 541.2198077898306 476.619796323361 Z" stroke-opacity="1" stroke-linecap="round" stroke-linejoin="round" stroke-miterlimit="10"/><text fill="rgb(77,77,255)" stroke="none" font-family="geogebra-sans-serif, sans-serif" font-size="16px" font-style="normal" font-weight="normal" text-decoration="normal" x="540" y="467" text-anchor="start" dominant-baseline="alphabetic" fill-opacity="1">B</text><path fill="rgb(110,109,115)" stroke="none" paint-order="stroke fill markers" d=" M 541.2198077898307 106.37284526452092 C 541.2198077898307 109.13426901367488 538.9812315389847 111.37284526452092 536.2198077898307 111.37284526452092 C 533.4583840406767 111.37284526452092 531.2198077898307 109.13426901367488 531.2198077898307 106.37284526452092 C 531.2198077898307 103.61142151536696 533.4583840406767 101.37284526452092 536.2198077898307 101.37284526452092 C 538.9812315389847 101.37284526452092 541.2198077898307 103.61142151536696 541.2198077898307 106.37284526452092 Z" fill-opacity="1"/><path fill="none" stroke="rgb(0,0,0)" paint-order="fill stroke markers" d=" M 541.2198077898307 106.37284526452092 C 541.2198077898307 109.13426901367488 538.9812315389847 111.37284526452092 536.2198077898307 111.37284526452092 C 533.4583840406767 111.37284526452092 531.2198077898307 109.13426901367488 531.2198077898307 106.37284526452092 C 531.2198077898307 103.61142151536696 533.4583840406767 101.37284526452092 536.2198077898307 101.37284526452092 C 538.9812315389847 101.37284526452092 541.2198077898307 103.61142151536696 541.2198077898307 106.37284526452092 Z" stroke-opacity="1" stroke-linecap="round" stroke-linejoin="round" stroke-miterlimit="10"/><text fill="rgb(110,109,115)" stroke="none" font-family="geogebra-sans-serif, sans-serif" font-size="16px" font-style="normal" font-weight="normal" text-decoration="normal" x="540" y="96" text-anchor="start" dominant-baseline="alphabetic" fill-opacity="1">C</text><path fill="rgb(110,109,115)" stroke="none" paint-order="stroke fill markers" d=" M 170.97285673099054 106.37284526452086 C 170.97285673099054 109.13426901367482 168.73428048014452 111.37284526452086 165.97285673099054 111.37284526452086 C 163.21143298183657 111.37284526452086 160.97285673099054 109.13426901367482 160.97285673099054 106.37284526452086 C 160.97285673099054 103.6114215153669 163.21143298183657 101.37284526452086 165.97285673099054 101.37284526452086 C 168.73428048014452 101.37284526452086 170.97285673099054 103.6114215153669 170.97285673099054 106.37284526452086 Z" fill-opacity="1"/><path fill="none" stroke="rgb(0,0,0)" paint-order="fill stroke markers" d=" M 170.97285673099054 106.37284526452086 C 170.97285673099054 109.13426901367482 168.73428048014452 111.37284526452086 165.97285673099054 111.37284526452086 C 163.21143298183657 111.37284526452086 160.97285673099054 109.13426901367482 160.97285673099054 106.37284526452086 C 160.97285673099054 103.6114215153669 163.21143298183657 101.37284526452086 165.97285673099054 101.37284526452086 C 168.73428048014452 101.37284526452086 170.97285673099054 103.6114215153669 170.97285673099054 106.37284526452086 Z" stroke-opacity="1" stroke-linecap="round" stroke-linejoin="round" stroke-miterlimit="10"/><text fill="rgb(110,109,115)" stroke="none" font-family="geogebra-sans-serif, sans-serif" font-size="16px" font-style="normal" font-weight="normal" text-decoration="normal" x="170" y="96" text-anchor="start" dominant-baseline="alphabetic" fill-opacity="1">D</text><path fill="rgb(255,192,203)" stroke="none" paint-order="stroke fill markers" d=" M 448.65807002512065 291.4963207939409 C 448.65807002512065 294.2577445430949 446.4194937742746 296.4963207939409 443.65807002512065 296.4963207939409 C 440.8966462759667 296.4963207939409 438.65807002512065 294.2577445430949 438.65807002512065 291.4963207939409 C 438.65807002512065 288.734897044787 440.8966462759667 286.4963207939409 443.65807002512065 286.4963207939409 C 446.4194937742746 286.4963207939409 448.65807002512065 288.734897044787 448.65807002512065 291.4963207939409 Z" fill-opacity="1"/><path fill="none" stroke="rgb(0,0,0)" paint-order="fill stroke markers" d=" M 448.65807002512065 291.4963207939409 C 448.65807002512065 294.2577445430949 446.4194937742746 296.4963207939409 443.65807002512065 296.4963207939409 C 440.8966462759667 296.4963207939409 438.65807002512065 294.2577445430949 438.65807002512065 291.4963207939409 C 438.65807002512065 288.734897044787 440.8966462759667 286.4963207939409 443.65807002512065 286.4963207939409 C 446.4194937742746 286.4963207939409 448.65807002512065 288.734897044787 448.65807002512065 291.4963207939409 Z" stroke-opacity="1" stroke-linecap="round" stroke-linejoin="round" stroke-miterlimit="10"/><text fill="rgb(255,192,203)" stroke="none" font-family="geogebra-sans-serif, sans-serif" font-size="16px" font-style="normal" font-weight="normal" text-decoration="normal" x="448" y="281" text-anchor="start" dominant-baseline="alphabetic" fill-opacity="1">Before</text><path fill="rgb(255,0,0)" stroke="none" paint-order="stroke fill markers" d=" M 356.0963322604106 198.9345830292309 C 356.0963322604106 201.69600677838488 353.8577560095645 203.9345830292309 351.0963322604106 203.9345830292309 C 348.33490851125663 203.9345830292309 346.0963322604106 201.69600677838488 346.0963322604106 198.9345830292309 C 346.0963322604106 196.17315928007693 348.33490851125663 193.9345830292309 351.0963322604106 193.9345830292309 C 353.8577560095645 193.9345830292309 356.0963322604106 196.17315928007693 356.0963322604106 198.9345830292309 Z" fill-opacity="1"/><path fill="none" stroke="rgb(0,0,0)" paint-order="fill stroke markers" d=" M 356.0963322604106 198.9345830292309 C 356.0963322604106 201.69600677838488 353.8577560095645 203.9345830292309 351.0963322604106 203.9345830292309 C 348.33490851125663 203.9345830292309 346.0963322604106 201.69600677838488 346.0963322604106 198.9345830292309 C 346.0963322604106 196.17315928007693 348.33490851125663 193.9345830292309 351.0963322604106 193.9345830292309 C 353.8577560095645 193.9345830292309 356.0963322604106 196.17315928007693 356.0963322604106 198.9345830292309 Z" stroke-opacity="1" stroke-linecap="round" stroke-linejoin="round" stroke-miterlimit="10"/><text fill="rgb(255,0,0)" stroke="none" font-family="geogebra-sans-serif, sans-serif" font-size="16px" font-style="normal" font-weight="normal" text-decoration="normal" x="355" y="189" text-anchor="start" dominant-baseline="alphabetic" fill-opacity="1">Now</text><path fill="rgb(110,109,115)" stroke="none" paint-order="stroke fill markers" d=" M 355.0963322604106 291.4963207939409 C 355.0963322604106 293.7054597932641 353.30547125973374 295.4963207939409 351.0963322604106 295.4963207939409 C 348.8871932610874 295.4963207939409 347.0963322604106 293.7054597932641 347.0963322604106 291.4963207939409 C 347.0963322604106 289.28718179461777 348.8871932610874 287.4963207939409 351.0963322604106 287.4963207939409 C 353.30547125973374 287.4963207939409 355.0963322604106 289.28718179461777 355.0963322604106 291.4963207939409 Z" fill-opacity="1"/><path fill="none" stroke="rgb(0,0,0)" paint-order="fill stroke markers" d=" M 355.0963322604106 291.4963207939409 C 355.0963322604106 293.7054597932641 353.30547125973374 295.4963207939409 351.0963322604106 295.4963207939409 C 348.8871932610874 295.4963207939409 347.0963322604106 293.7054597932641 347.0963322604106 291.4963207939409 C 347.0963322604106 289.28718179461777 348.8871932610874 287.4963207939409 351.0963322604106 287.4963207939409 C 353.30547125973374 287.4963207939409 355.0963322604106 289.28718179461777 355.0963322604106 291.4963207939409 Z" stroke-opacity="1" stroke-linecap="round" stroke-linejoin="round" stroke-miterlimit="10"/></g></g></svg>